# xmcd
#
# Track frame offsets: 
#        150
#        11051
#        20541
#        32052
#        48065
#        60988
#        68315
#        78101
#        89013
#        111724
#        121674
#        129293
#        142355
#        161607
#        207393
#
# Disc length: 2940 seconds
#
# Revision: 2
# Processed by: cddbd v1.5.1PL2 Copyright (c) Steve Scherf et al.
# Submitted via: ExactAudioCopy v0.95b4
#
DISCID=c50b7a0f
DTITLE=Coral Altivoz - Desenredos
DYEAR=1999
DGENRE=Vocal
TTITLE0=Bumba-meu-boi
TTITLE1=Categiró
TTITLE2=Desenredo
TTITLE3=Dos Rios
TTITLE4=Moacaretá
TTITLE5=Pueri Hebraeorum
TTITLE6=Ofulú Lorerê
TTITLE7=Congada
TTITLE8=Quatro Maracatus
TTITLE9=Trenzinho Caipira
TTITLE10=Madrigal 1
TTITLE11=Davi Licença
TTITLE12=Geléia Geral
TTITLE13=Cantos pro Rio
TTITLE14=Moacaretá
EXTD=
EXTT0=
EXTT1=
EXTT2=
EXTT3=
EXTT4=
EXTT5=
EXTT6=
EXTT7=
EXTT8=
EXTT9=
EXTT10=
EXTT11=
EXTT12=
EXTT13=
EXTT14=
PLAYORDER=
